<svg width="20" height="20" xmlns="http://www.w3.org/2000/svg">
 <!-- Generator: Sketch 43.2 (39069) - http://www.bohemiancoding.com/sketch -->
 <title>pen</title>
 <desc>Created with Sketch.</desc>

 <g>
  <title>background</title>
  <rect fill="none" id="canvas_background" height="402" width="582" y="-1" x="-1"/>
 </g>
 <g>
  <title>Layer 1</title>
  <g fill-rule="evenodd" fill="none" id="Page-1">
   <g fill="#575E75" id="pen">
    <path id="pen-icon" d="m9.27946,8.11514l2.60493,2.60493l-4.59415,4.59415c-0.15787,0.15787 -0.41047,0.15787 -0.56835,0l-0.18945,-0.18945l-1.46823,1.45244c-0.07894,0.07894 -0.17366,0.11051 -0.28417,0.11051c-0.11052,0 -0.20524,-0.03157 -0.28418,-0.11051l-0.2526,-0.2526l-0.56835,0.56835c-0.07893,0.07894 -0.18945,0.11051 -0.28417,0.11051c-0.09473,0 -0.20524,-0.03157 -0.28417,-0.11051c-0.14209,-0.15787 -0.14209,-0.41047 0,-0.56835l0.56834,-0.56835l-0.2526,-0.2526c-0.07893,-0.07893 -0.11051,-0.17366 -0.11051,-0.28417c0,-0.11051 0.03158,-0.20524 0.11051,-0.28417l1.46824,-1.45245l-0.20524,-0.20524c-0.15787,-0.15787 -0.15787,-0.41047 0,-0.56834l4.59415,-4.59415zm3.32054,1.88486l-2.6,-2.7l2.76896,-2.67389l-0.59992,-0.59993l-4.08895,4.07317c-0.07894,0.07894 -0.17366,0.1263 -0.26839,0.1263c-0.11051,0 -0.20524,-0.04736 -0.28417,-0.1263c-0.15788,-0.15788 -0.15788,-0.39469 0,-0.55256l4.35733,-4.35734c0.07894,-0.07894 0.17367,-0.1263 0.28418,-0.1263c0.11051,0 0.20524,0.04736 0.28417,0.1263l0.86831,0.8841l0.83674,-0.83674c0.31575,-0.31575 0.82095,-0.31575 1.13669,0l1.46824,1.46824c0.31575,0.31574 0.31575,0.82094 0,1.13669l-4.16319,4.15826z"/>
   </g>
  </g>
  <text stroke="#000" transform="matrix(0.3306159178519579,0,0,0.3306159178519579,9.346108992301616,-11.40003922952226) " xml:space="preserve" text-anchor="start" font-family="Helvetica, Arial, sans-serif" font-size="24" id="svg_1" y="86.159558" x="11.672523" stroke-width="0" fill="#575e76">2</text>
 </g>
</svg>